<?xml version="1.0" encoding="UTF-8" standalone="no"?><svg xmlns="http://www.w3.org/2000/svg" xmlns:xlink="http://www.w3.org/1999/xlink" contentStyleType="text/css" height="335px" preserveAspectRatio="none" style="width:1080px;height:335px;background:#FFFFFF;" version="1.1" viewBox="0 0 1080 335" width="1080px" zoomAndPan="magnify"><defs/><g><!--MD5=[1f03944efe3334577da183320bd0cef9]
class IName--><g id="elem_IName"><rect codeLine="2" fill="#F1F1F1" height="86.1358" id="IName" rx="2.5" ry="2.5" style="stroke:#181818;stroke-width:0.5;" width="216" x="379.22" y="134"/><ellipse cx="461.97" cy="150" fill="#B4A7E5" rx="11" ry="11" style="stroke:#181818;stroke-width:1.0;"/><path d="M464.0638,156.5 L459.1575,156.5 L459.1575,155.125 L460.5794,154.8125 L460.5794,145.5313 L459.1575,145.1875 L459.1575,143.8281 L464.0638,143.8281 L464.0638,145.1875 L462.6419,145.5313 L462.6419,154.8125 L464.0638,155.125 L464.0638,156.5 Z " fill="#000000"/><text fill="#000000" font-family="sans-serif" font-size="14" font-style="italic" lengthAdjust="spacing" textLength="42" x="482.47" y="155.432">IName</text><line style="stroke:#181818;stroke-width:0.5;" x1="380.22" x2="594.22" y1="166" y2="166"/><rect fill="none" height="6" style="stroke:#C82930;stroke-width:1.0;" width="6" x="387.22" y="178.034"/><text fill="#000000" font-family="sans-serif" font-size="14" lengthAdjust="spacing" textLength="86" x="399.22" y="184.9659">name: string</text><rect fill="none" height="6" style="stroke:#C82930;stroke-width:1.0;" width="6" x="387.22" y="197.1019"/><text fill="#000000" font-family="sans-serif" font-size="14" lengthAdjust="spacing" textLength="190" x="399.22" y="204.0339">numberOfAppendages: uint</text><line style="stroke:#181818;stroke-width:0.5;" x1="380.22" x2="594.22" y1="212.1358" y2="212.1358"/></g><!--MD5=[477f6168a827414e69ab4a56faa0a169]
class IMobile--><g id="elem_IMobile"><rect codeLine="7" fill="#F1F1F1" height="86.1358" id="IMobile" rx="2.5" ry="2.5" style="stroke:#181818;stroke-width:0.5;" width="100" x="46.22" y="134"/><ellipse cx="70.22" cy="150" fill="#B4A7E5" rx="11" ry="11" style="stroke:#181818;stroke-width:1.0;"/><path d="M72.3138,156.5 L67.4075,156.5 L67.4075,155.125 L68.8294,154.8125 L68.8294,145.5313 L67.4075,145.1875 L67.4075,143.8281 L72.3138,143.8281 L72.3138,145.1875 L70.8919,145.5313 L70.8919,154.8125 L72.3138,155.125 L72.3138,156.5 Z " fill="#000000"/><text fill="#000000" font-family="sans-serif" font-size="14" font-style="italic" lengthAdjust="spacing" textLength="48" x="86.22" y="155.432">IMobile</text><line style="stroke:#181818;stroke-width:0.5;" x1="47.22" x2="145.22" y1="166" y2="166"/><line style="stroke:#181818;stroke-width:0.5;" x1="47.22" x2="145.22" y1="174" y2="174"/><ellipse cx="57.22" cy="189.034" fill="#84BE84" rx="3" ry="3" style="stroke:#038048;stroke-width:1.0;"/><text fill="#000000" font-family="sans-serif" font-size="14" lengthAdjust="spacing" textLength="74" x="66.22" y="192.9659">walk(): void</text><ellipse cx="57.22" cy="208.1019" fill="#84BE84" rx="3" ry="3" style="stroke:#038048;stroke-width:1.0;"/><text fill="#000000" font-family="sans-serif" font-size="14" lengthAdjust="spacing" textLength="68" x="66.22" y="212.0339">run(): void</text></g><!--MD5=[9b7d1659afa3add92508730b6cb6c99d]
class IDigger--><g id="elem_IDigger"><rect codeLine="12" fill="#F1F1F1" height="67.0679" id="IDigger" rx="2.5" ry="2.5" style="stroke:#181818;stroke-width:0.5;" width="92" x="252.22" y="143.5"/><ellipse cx="273.07" cy="159.5" fill="#B4A7E5" rx="11" ry="11" style="stroke:#181818;stroke-width:1.0;"/><path d="M275.1638,166 L270.2575,166 L270.2575,164.625 L271.6794,164.3125 L271.6794,155.0313 L270.2575,154.6875 L270.2575,153.3281 L275.1638,153.3281 L275.1638,154.6875 L273.7419,155.0313 L273.7419,164.3125 L275.1638,164.625 L275.1638,166 Z " fill="#000000"/><text fill="#000000" font-family="sans-serif" font-size="14" font-style="italic" lengthAdjust="spacing" textLength="47" x="288.37" y="164.932">IDigger</text><line style="stroke:#181818;stroke-width:0.5;" x1="253.22" x2="343.22" y1="175.5" y2="175.5"/><line style="stroke:#181818;stroke-width:0.5;" x1="253.22" x2="343.22" y1="183.5" y2="183.5"/><ellipse cx="263.22" cy="198.534" fill="#84BE84" rx="3" ry="3" style="stroke:#038048;stroke-width:1.0;"/><text fill="#000000" font-family="sans-serif" font-size="14" lengthAdjust="spacing" textLength="66" x="272.22" y="202.4659">dig(): void</text></g><!--MD5=[2425b479da93eea62ee9411840bbe199]
class ICrawl--><g id="elem_ICrawl"><rect codeLine="16" fill="#F1F1F1" height="67.0679" id="ICrawl" rx="2.5" ry="2.5" style="stroke:#181818;stroke-width:0.5;" width="106" x="245.22" y="7"/><ellipse cx="275.07" cy="23" fill="#B4A7E5" rx="11" ry="11" style="stroke:#181818;stroke-width:1.0;"/><path d="M277.1638,29.5 L272.2575,29.5 L272.2575,28.125 L273.6794,27.8125 L273.6794,18.5313 L272.2575,18.1875 L272.2575,16.8281 L277.1638,16.8281 L277.1638,18.1875 L275.7419,18.5313 L275.7419,27.8125 L277.1638,28.125 L277.1638,29.5 Z " fill="#000000"/><text fill="#000000" font-family="sans-serif" font-size="14" font-style="italic" lengthAdjust="spacing" textLength="41" x="292.37" y="28.432">ICrawl</text><line style="stroke:#181818;stroke-width:0.5;" x1="246.22" x2="350.22" y1="39" y2="39"/><line style="stroke:#181818;stroke-width:0.5;" x1="246.22" x2="350.22" y1="47" y2="47"/><ellipse cx="256.22" cy="62.034" fill="#84BE84" rx="3" ry="3" style="stroke:#038048;stroke-width:1.0;"/><text fill="#000000" font-family="sans-serif" font-size="14" lengthAdjust="spacing" textLength="80" x="265.22" y="65.9659">crawl(): void</text></g><!--MD5=[aef8f0136d47cdce57b2d5444eecc2a5]
class IBreath--><g id="elem_IBreath"><rect codeLine="20" fill="#F1F1F1" height="67.0679" id="IBreath" rx="2.5" ry="2.5" style="stroke:#181818;stroke-width:0.5;" width="115" x="642.72" y="7"/><ellipse cx="673.92" cy="23" fill="#B4A7E5" rx="11" ry="11" style="stroke:#181818;stroke-width:1.0;"/><path d="M676.0138,29.5 L671.1075,29.5 L671.1075,28.125 L672.5294,27.8125 L672.5294,18.5313 L671.1075,18.1875 L671.1075,16.8281 L676.0138,16.8281 L676.0138,18.1875 L674.5919,18.5313 L674.5919,27.8125 L676.0138,28.125 L676.0138,29.5 Z " fill="#000000"/><text fill="#000000" font-family="sans-serif" font-size="14" font-style="italic" lengthAdjust="spacing" textLength="47" x="691.52" y="28.432">IBreath</text><line style="stroke:#181818;stroke-width:0.5;" x1="643.72" x2="756.72" y1="39" y2="39"/><line style="stroke:#181818;stroke-width:0.5;" x1="643.72" x2="756.72" y1="47" y2="47"/><ellipse cx="653.72" cy="62.034" fill="#84BE84" rx="3" ry="3" style="stroke:#038048;stroke-width:1.0;"/><text fill="#000000" font-family="sans-serif" font-size="14" lengthAdjust="spacing" textLength="89" x="662.72" y="65.9659">breath(): void</text></g><!--MD5=[50d37b83747a478e779bda6669559714]
class ISwimmer--><g id="elem_ISwimmer"><rect codeLine="24" fill="#F1F1F1" height="67.0679" id="ISwimmer" rx="2.5" ry="2.5" style="stroke:#181818;stroke-width:0.5;" width="105" x="881.72" y="7"/><ellipse cx="901.22" cy="23" fill="#B4A7E5" rx="11" ry="11" style="stroke:#181818;stroke-width:1.0;"/><path d="M903.3138,29.5 L898.4075,29.5 L898.4075,28.125 L899.8294,27.8125 L899.8294,18.5313 L898.4075,18.1875 L898.4075,16.8281 L903.3138,16.8281 L903.3138,18.1875 L901.8919,18.5313 L901.8919,27.8125 L903.3138,28.125 L903.3138,29.5 Z " fill="#000000"/><text fill="#000000" font-family="sans-serif" font-size="14" font-style="italic" lengthAdjust="spacing" textLength="63" x="916.22" y="28.432">ISwimmer</text><line style="stroke:#181818;stroke-width:0.5;" x1="882.72" x2="985.72" y1="39" y2="39"/><line style="stroke:#181818;stroke-width:0.5;" x1="882.72" x2="985.72" y1="47" y2="47"/><ellipse cx="892.72" cy="62.034" fill="#84BE84" rx="3" ry="3" style="stroke:#038048;stroke-width:1.0;"/><text fill="#000000" font-family="sans-serif" font-size="14" lengthAdjust="spacing" textLength="79" x="901.72" y="65.9659">swim(): void</text></g><!--MD5=[c2a53476831dda62bd77179bf259479a]
class IFetcher--><g id="elem_IFetcher"><rect codeLine="28" fill="#F1F1F1" height="67.0679" id="IFetcher" rx="2.5" ry="2.5" style="stroke:#181818;stroke-width:0.5;" width="134" x="701.22" y="143.5"/><ellipse cx="739.17" cy="159.5" fill="#B4A7E5" rx="11" ry="11" style="stroke:#181818;stroke-width:1.0;"/><path d="M741.2638,166 L736.3575,166 L736.3575,164.625 L737.7794,164.3125 L737.7794,155.0313 L736.3575,154.6875 L736.3575,153.3281 L741.2638,153.3281 L741.2638,154.6875 L739.8419,155.0313 L739.8419,164.3125 L741.2638,164.625 L741.2638,166 Z " fill="#000000"/><text fill="#000000" font-family="sans-serif" font-size="14" font-style="italic" lengthAdjust="spacing" textLength="51" x="758.27" y="164.932">IFetcher</text><line style="stroke:#181818;stroke-width:0.5;" x1="702.22" x2="834.22" y1="175.5" y2="175.5"/><line style="stroke:#181818;stroke-width:0.5;" x1="702.22" x2="834.22" y1="183.5" y2="183.5"/><ellipse cx="712.22" cy="198.534" fill="#84BE84" rx="3" ry="3" style="stroke:#038048;stroke-width:1.0;"/><text fill="#000000" font-family="sans-serif" font-size="14" lengthAdjust="spacing" textLength="108" x="721.22" y="202.4659">playFetch(): void</text></g><!--MD5=[454ed48f055567edc734f170f61b4daf]
class Dog--><g id="elem_Dog"><rect codeLine="32" fill="#F1F1F1" height="48" id="Dog" rx="2.5" ry="2.5" style="stroke:#181818;stroke-width:0.5;" width="59" x="457.72" y="280"/><ellipse cx="472.72" cy="296" fill="#ADD1B2" rx="11" ry="11" style="stroke:#181818;stroke-width:1.0;"/><path d="M472.8294,291.5313 Q471.9075,291.5313 471.1731,291.8438 Q470.4544,292.1563 469.9544,292.75 Q469.4544,293.3281 469.1731,294.2031 Q468.9075,295.0781 468.9075,296.1719 Q468.9075,297.6094 469.345,298.6563 Q469.7981,299.7031 470.6419,300.25 Q471.5013,300.7969 472.8138,300.7969 Q473.595,300.7969 474.2825,300.6719 Q474.9856,300.5313 475.9856,300.2188 L475.9856,302.0938 Q475.1263,302.4219 474.3606,302.5469 Q473.6106,302.6719 472.595,302.6719 Q470.6731,302.6719 469.3606,301.875 Q468.0638,301.0625 467.4075,299.5938 Q466.7513,298.1094 466.7513,296.1406 Q466.7513,294.7188 467.1419,293.5469 Q467.5481,292.3594 468.3294,291.4844 Q469.1106,290.6094 470.2513,290.1406 Q471.3919,289.6563 472.8606,289.6563 Q473.8138,289.6563 474.7044,289.8594 Q475.6106,290.0469 476.5481,290.5156 L475.72,292.2969 Q474.9388,291.9219 474.2825,291.7344 Q473.6263,291.5313 472.8294,291.5313 Z " fill="#000000"/><text fill="#000000" font-family="sans-serif" font-size="14" lengthAdjust="spacing" textLength="27" x="486.72" y="301.432">Dog</text><line style="stroke:#181818;stroke-width:0.5;" x1="458.72" x2="515.72" y1="312" y2="312"/><line style="stroke:#181818;stroke-width:0.5;" x1="458.72" x2="515.72" y1="320" y2="320"/></g><!--MD5=[c3494489cb2f82461efb5b3f19f17592]
class WildSeal--><g id="elem_WildSeal"><rect codeLine="36" fill="#F1F1F1" height="48" id="WildSeal" rx="2.5" ry="2.5" style="stroke:#181818;stroke-width:0.5;" width="90" x="914.22" y="280"/><ellipse cx="929.22" cy="296" fill="#ADD1B2" rx="11" ry="11" style="stroke:#181818;stroke-width:1.0;"/><path d="M929.3294,291.5313 Q928.4075,291.5313 927.6731,291.8438 Q926.9544,292.1563 926.4544,292.75 Q925.9544,293.3281 925.6731,294.2031 Q925.4075,295.0781 925.4075,296.1719 Q925.4075,297.6094 925.845,298.6563 Q926.2981,299.7031 927.1419,300.25 Q928.0013,300.7969 929.3138,300.7969 Q930.095,300.7969 930.7825,300.6719 Q931.4856,300.5313 932.4856,300.2188 L932.4856,302.0938 Q931.6263,302.4219 930.8606,302.5469 Q930.1106,302.6719 929.095,302.6719 Q927.1731,302.6719 925.8606,301.875 Q924.5638,301.0625 923.9075,299.5938 Q923.2513,298.1094 923.2513,296.1406 Q923.2513,294.7188 923.6419,293.5469 Q924.0481,292.3594 924.8294,291.4844 Q925.6106,290.6094 926.7513,290.1406 Q927.8919,289.6563 929.3606,289.6563 Q930.3138,289.6563 931.2044,289.8594 Q932.1106,290.0469 933.0481,290.5156 L932.22,292.2969 Q931.4388,291.9219 930.7825,291.7344 Q930.1263,291.5313 929.3294,291.5313 Z " fill="#000000"/><text fill="#000000" font-family="sans-serif" font-size="14" lengthAdjust="spacing" textLength="58" x="943.22" y="301.432">WildSeal</text><line style="stroke:#181818;stroke-width:0.5;" x1="915.22" x2="1003.22" y1="312" y2="312"/><line style="stroke:#181818;stroke-width:0.5;" x1="915.22" x2="1003.22" y1="320" y2="320"/></g><!--MD5=[fbb341b7a3bace498eb6b2ae3db12849]
class Seal--><g id="elem_Seal"><rect codeLine="40" fill="#F1F1F1" height="48" id="Seal" rx="2.5" ry="2.5" style="stroke:#181818;stroke-width:0.5;" width="60" x="678.22" y="280"/><ellipse cx="693.22" cy="296" fill="#ADD1B2" rx="11" ry="11" style="stroke:#181818;stroke-width:1.0;"/><path d="M693.3294,291.5313 Q692.4075,291.5313 691.6731,291.8438 Q690.9544,292.1563 690.4544,292.75 Q689.9544,293.3281 689.6731,294.2031 Q689.4075,295.0781 689.4075,296.1719 Q689.4075,297.6094 689.845,298.6563 Q690.2981,299.7031 691.1419,300.25 Q692.0013,300.7969 693.3138,300.7969 Q694.095,300.7969 694.7825,300.6719 Q695.4856,300.5313 696.4856,300.2188 L696.4856,302.0938 Q695.6263,302.4219 694.8606,302.5469 Q694.1106,302.6719 693.095,302.6719 Q691.1731,302.6719 689.8606,301.875 Q688.5638,301.0625 687.9075,299.5938 Q687.2513,298.1094 687.2513,296.1406 Q687.2513,294.7188 687.6419,293.5469 Q688.0481,292.3594 688.8294,291.4844 Q689.6106,290.6094 690.7513,290.1406 Q691.8919,289.6563 693.3606,289.6563 Q694.3138,289.6563 695.2044,289.8594 Q696.1106,290.0469 697.0481,290.5156 L696.22,292.2969 Q695.4388,291.9219 694.7825,291.7344 Q694.1263,291.5313 693.3294,291.5313 Z " fill="#000000"/><text fill="#000000" font-family="sans-serif" font-size="14" lengthAdjust="spacing" textLength="28" x="707.22" y="301.432">Seal</text><line style="stroke:#181818;stroke-width:0.5;" x1="679.22" x2="737.22" y1="312" y2="312"/><line style="stroke:#181818;stroke-width:0.5;" x1="679.22" x2="737.22" y1="320" y2="320"/></g><!--MD5=[46c97a57589ae0235a90fa1765a6f2f5]
class Mole--><g id="elem_Mole"><rect codeLine="44" fill="#F1F1F1" height="48" id="Mole" rx="2.5" ry="2.5" style="stroke:#181818;stroke-width:0.5;" width="65" x="249.72" y="280"/><ellipse cx="264.72" cy="296" fill="#ADD1B2" rx="11" ry="11" style="stroke:#181818;stroke-width:1.0;"/><path d="M264.8294,291.5313 Q263.9075,291.5313 263.1731,291.8438 Q262.4544,292.1563 261.9544,292.75 Q261.4544,293.3281 261.1731,294.2031 Q260.9075,295.0781 260.9075,296.1719 Q260.9075,297.6094 261.345,298.6563 Q261.7981,299.7031 262.6419,300.25 Q263.5013,300.7969 264.8138,300.7969 Q265.595,300.7969 266.2825,300.6719 Q266.9856,300.5313 267.9856,300.2188 L267.9856,302.0938 Q267.1263,302.4219 266.3606,302.5469 Q265.6106,302.6719 264.595,302.6719 Q262.6731,302.6719 261.3606,301.875 Q260.0638,301.0625 259.4075,299.5938 Q258.7513,298.1094 258.7513,296.1406 Q258.7513,294.7188 259.1419,293.5469 Q259.5481,292.3594 260.3294,291.4844 Q261.1106,290.6094 262.2513,290.1406 Q263.3919,289.6563 264.8606,289.6563 Q265.8138,289.6563 266.7044,289.8594 Q267.6106,290.0469 268.5481,290.5156 L267.72,292.2969 Q266.9388,291.9219 266.2825,291.7344 Q265.6263,291.5313 264.8294,291.5313 Z " fill="#000000"/><text fill="#000000" font-family="sans-serif" font-size="14" lengthAdjust="spacing" textLength="33" x="278.72" y="301.432">Mole</text><line style="stroke:#181818;stroke-width:0.5;" x1="250.72" x2="313.72" y1="312" y2="312"/><line style="stroke:#181818;stroke-width:0.5;" x1="250.72" x2="313.72" y1="320" y2="320"/></g><!--MD5=[8d10b9619f233caeee54837354dd5717]
class Cat--><g id="elem_Cat"><rect codeLine="48" fill="#F1F1F1" height="48" id="Cat" rx="2.5" ry="2.5" style="stroke:#181818;stroke-width:0.5;" width="54" x="69.22" y="280"/><ellipse cx="84.22" cy="296" fill="#ADD1B2" rx="11" ry="11" style="stroke:#181818;stroke-width:1.0;"/><path d="M84.3294,291.5313 Q83.4075,291.5313 82.6731,291.8438 Q81.9544,292.1563 81.4544,292.75 Q80.9544,293.3281 80.6731,294.2031 Q80.4075,295.0781 80.4075,296.1719 Q80.4075,297.6094 80.845,298.6563 Q81.2981,299.7031 82.1419,300.25 Q83.0013,300.7969 84.3138,300.7969 Q85.095,300.7969 85.7825,300.6719 Q86.4856,300.5313 87.4856,300.2188 L87.4856,302.0938 Q86.6263,302.4219 85.8606,302.5469 Q85.1106,302.6719 84.095,302.6719 Q82.1731,302.6719 80.8606,301.875 Q79.5638,301.0625 78.9075,299.5938 Q78.2513,298.1094 78.2513,296.1406 Q78.2513,294.7188 78.6419,293.5469 Q79.0481,292.3594 79.8294,291.4844 Q80.6106,290.6094 81.7513,290.1406 Q82.8919,289.6563 84.3606,289.6563 Q85.3138,289.6563 86.2044,289.8594 Q87.1106,290.0469 88.0481,290.5156 L87.22,292.2969 Q86.4388,291.9219 85.7825,291.7344 Q85.1263,291.5313 84.3294,291.5313 Z " fill="#000000"/><text fill="#000000" font-family="sans-serif" font-size="14" lengthAdjust="spacing" textLength="22" x="98.22" y="301.432">Cat</text><line style="stroke:#181818;stroke-width:0.5;" x1="70.22" x2="122.22" y1="312" y2="312"/><line style="stroke:#181818;stroke-width:0.5;" x1="70.22" x2="122.22" y1="320" y2="320"/></g><!--MD5=[d5d7bc467ba7a0813dc5cfd10b0b31e3]
class Worm--><g id="elem_Worm"><rect codeLine="52" fill="#F1F1F1" height="48" id="Worm" rx="2.5" ry="2.5" style="stroke:#181818;stroke-width:0.5;" width="72" x="350.22" y="280"/><ellipse cx="365.22" cy="296" fill="#ADD1B2" rx="11" ry="11" style="stroke:#181818;stroke-width:1.0;"/><path d="M365.3294,291.5313 Q364.4075,291.5313 363.6731,291.8438 Q362.9544,292.1563 362.4544,292.75 Q361.9544,293.3281 361.6731,294.2031 Q361.4075,295.0781 361.4075,296.1719 Q361.4075,297.6094 361.845,298.6563 Q362.2981,299.7031 363.1419,300.25 Q364.0013,300.7969 365.3138,300.7969 Q366.095,300.7969 366.7825,300.6719 Q367.4856,300.5313 368.4856,300.2188 L368.4856,302.0938 Q367.6263,302.4219 366.8606,302.5469 Q366.1106,302.6719 365.095,302.6719 Q363.1731,302.6719 361.8606,301.875 Q360.5638,301.0625 359.9075,299.5938 Q359.2513,298.1094 359.2513,296.1406 Q359.2513,294.7188 359.6419,293.5469 Q360.0481,292.3594 360.8294,291.4844 Q361.6106,290.6094 362.7513,290.1406 Q363.8919,289.6563 365.3606,289.6563 Q366.3138,289.6563 367.2044,289.8594 Q368.1106,290.0469 369.0481,290.5156 L368.22,292.2969 Q367.4388,291.9219 366.7825,291.7344 Q366.1263,291.5313 365.3294,291.5313 Z " fill="#000000"/><text fill="#000000" font-family="sans-serif" font-size="14" lengthAdjust="spacing" textLength="40" x="379.22" y="301.432">Worm</text><line style="stroke:#181818;stroke-width:0.5;" x1="351.22" x2="421.22" y1="312" y2="312"/><line style="stroke:#181818;stroke-width:0.5;" x1="351.22" x2="421.22" y1="320" y2="320"/></g><!--MD5=[1c6da1b744472bb56f1d17ed6d41b632]
reverse link ICrawl to IMobile--><g id="link_ICrawl_IMobile"><path codeLine="56" d="M230.9,86.32 C203.35,104.67 172.03,125.52 146.53,142.5 " fill="none" id="ICrawl-backto-IMobile" style="stroke:#181818;stroke-width:1.0;"/><polygon fill="none" points="227.02,80.5,247.55,75.24,234.78,92.15,227.02,80.5" style="stroke:#181818;stroke-width:1.0;"/></g><!--MD5=[40d194e4ad5ec132aa6aae3e644d4437]
reverse link IBreath to IMobile--><g id="link_IBreath_IMobile"><path codeLine="57" d="M621.17,47.32 C516.3,56.84 326.54,80.36 173.22,134 C164.31,137.12 155.2,141.19 146.51,145.57 " fill="none" id="IBreath-backto-IMobile" style="stroke:#181818;stroke-width:1.0;"/><polygon fill="none" points="620.49,40.35,641.02,45.6,621.7,54.3,620.49,40.35" style="stroke:#181818;stroke-width:1.0;"/></g><!--MD5=[c3ee6a7d1ff4242dc0a578660ffa9663]
reverse link ICrawl to IDigger--><g id="link_ICrawl_IDigger"><path codeLine="58" d="M298.22,95.78 C298.22,111.93 298.22,129.13 298.22,143.44 " fill="none" id="ICrawl-backto-IDigger" style="stroke:#181818;stroke-width:1.0;"/><polygon fill="none" points="291.22,95.92,298.22,75.92,305.22,95.92,291.22,95.92" style="stroke:#181818;stroke-width:1.0;"/></g><!--MD5=[291c47a83a0667c12014cb0a9254097f]
reverse link ISwimmer to IFetcher--><g id="link_ISwimmer_IFetcher"><path codeLine="59" d="M877.08,87.8 C854.57,106.03 829.25,126.55 808.7,143.2 " fill="none" id="ISwimmer-backto-IFetcher" style="stroke:#181818;stroke-width:1.0;"/><polygon fill="none" points="872.49,82.51,892.44,75.36,881.3,93.38,872.49,82.51" style="stroke:#181818;stroke-width:1.0;"/></g><!--MD5=[7c2b2f08e99fe276ef25da2176f92e76]
reverse link IMobile to Dog--><g id="link_IMobile_Dog"><path codeLine="60" d="M166.93,199.68 C188.52,206.25 212.33,213.47 234.22,220 C325.19,247.15 350.57,246.04 439.22,280 C445.17,282.28 451.41,285 457.33,287.76 " fill="none" id="IMobile-backto-Dog" style="stroke:#181818;stroke-width:1.0;"/><polygon fill="none" points="165.18,206.47,148.1,193.93,169.27,193.07,165.18,206.47" style="stroke:#181818;stroke-width:1.0;"/></g><!--MD5=[2a309f54259253dedde1cd85b8335721]
reverse link IDigger to Dog--><g id="link_IDigger_Dog"><path codeLine="61" d="M362.37,220.74 C403.19,247.77 435,268.7 457.4,283.43 " fill="none" id="IDigger-backto-Dog" style="stroke:#181818;stroke-width:1.0;"/><polygon fill="none" points="358.71,226.71,345.91,209.83,366.45,215.04,358.71,226.71" style="stroke:#181818;stroke-width:1.0;"/></g><!--MD5=[8581133bfd8617de7fe58768f573c9b1]
reverse link IFetcher to Dog--><g id="link_IFetcher_Dog"><path codeLine="62" d="M681.34,216.65 C625.31,241.57 555.89,272.45 517.08,289.72 " fill="none" id="IFetcher-backto-Dog" style="stroke:#181818;stroke-width:1.0;"/><polygon fill="none" points="678.41,210.29,699.53,208.56,684.1,223.08,678.41,210.29" style="stroke:#181818;stroke-width:1.0;"/></g><!--MD5=[07c21d17802f33d822d35717ce60b75a]
reverse link IName to Dog--><g id="link_IName_Dog"><path codeLine="63" d="M487.22,241.47 C487.22,255.14 487.22,268.74 487.22,279.67 " fill="none" id="IName-backto-Dog" style="stroke:#181818;stroke-width:1.0;"/><polygon fill="none" points="480.22,241.83,487.22,221.83,494.22,241.83,480.22,241.83" style="stroke:#181818;stroke-width:1.0;"/></g><!--MD5=[ff5f0e31ed13095fb50a510152ead013]
reverse link IMobile to Cat--><g id="link_IMobile_Cat"><path codeLine="65" d="M96.22,241.47 C96.22,255.14 96.22,268.74 96.22,279.67 " fill="none" id="IMobile-backto-Cat" style="stroke:#181818;stroke-width:1.0;"/><polygon fill="none" points="89.22,241.83,96.22,221.83,103.22,241.83,89.22,241.83" style="stroke:#181818;stroke-width:1.0;"/></g><!--MD5=[1f6c0c30990b2efd773b926e272386fd]
reverse link ICrawl to Cat--><g id="link_ICrawl_Cat"><path codeLine="66" d="M223.63,44.42 C160.09,51.33 72.28,72.33 28.22,134 C6,165.1 15.36,184.01 28.22,220 C36.49,243.16 54.32,264.5 69.64,279.74 " fill="none" id="ICrawl-backto-Cat" style="stroke:#181818;stroke-width:1.0;"/><polygon fill="none" points="222.93,37.46,243.47,42.65,224.17,51.4,222.93,37.46" style="stroke:#181818;stroke-width:1.0;"/></g><!--MD5=[3066c45913f67d1d479ce02c40d8ed57]
reverse link IName to Cat--><g id="link_IName_Cat"><path codeLine="67" d="M358.84,220.72 C261.45,252.06 168.3,280.86 123.36,294.68 " fill="none" id="IName-backto-Cat" style="stroke:#181818;stroke-width:1.0;"/><polygon fill="none" points="356.39,214.16,377.57,214.68,360.69,227.48,356.39,214.16" style="stroke:#181818;stroke-width:1.0;"/></g><!--MD5=[3c5bf3d2c4b32ede402daf352a5eebad]
reverse link IBreath to Mole--><g id="link_IBreath_Mole"><path codeLine="69" d="M621.43,45.44 C501.59,53.27 282.32,75.41 234.22,134 C199,176.9 238.12,244.22 263.68,279.56 " fill="none" id="IBreath-backto-Mole" style="stroke:#181818;stroke-width:1.0;"/><polygon fill="none" points="620.68,38.47,641.07,44.23,621.54,52.45,620.68,38.47" style="stroke:#181818;stroke-width:1.0;"/></g><!--MD5=[e969fd070af155c9b673f3e8cc36c4ce]
reverse link IDigger to Mole--><g id="link_IDigger_Mole"><path codeLine="70" d="M291.31,231.99 C289.16,248.76 286.91,266.36 285.18,279.85 " fill="none" id="IDigger-backto-Mole" style="stroke:#181818;stroke-width:1.0;"/><polygon fill="none" points="284.34,231.29,293.82,212.34,298.23,233.07,284.34,231.29" style="stroke:#181818;stroke-width:1.0;"/></g><!--MD5=[34c08a4c0921f115601d32fd59299c10]
reverse link IName to Mole--><g id="link_IName_Mole"><path codeLine="71" d="M399.23,231.65 C369.34,249.88 337.78,269.13 314.97,283.03 " fill="none" id="IName-backto-Mole" style="stroke:#181818;stroke-width:1.0;"/><polygon fill="none" points="395.52,225.72,416.24,221.28,402.81,237.67,395.52,225.72" style="stroke:#181818;stroke-width:1.0;"/></g><!--MD5=[53c434908506f3f1f9cec1118ef2f4d3]
reverse link IDigger to Worm--><g id="link_IDigger_Worm"><path codeLine="73" d="M333.65,228.33 C346.21,246.17 359.73,265.38 369.92,279.85 " fill="none" id="IDigger-backto-Worm" style="stroke:#181818;stroke-width:1.0;"/><polygon fill="none" points="328,232.46,322.21,212.08,339.45,224.4,328,232.46" style="stroke:#181818;stroke-width:1.0;"/></g><!--MD5=[05b2bb6fc1534cf224e228ee4d1093b6]
reverse link IName to Worm--><g id="link_IName_Worm"><path codeLine="74" d="M439.88,236.59 C427.54,251.86 414.95,267.44 405.07,279.67 " fill="none" id="IName-backto-Worm" style="stroke:#181818;stroke-width:1.0;"/><polygon fill="none" points="434.06,232.65,452.08,221.5,444.95,241.45,434.06,232.65" style="stroke:#181818;stroke-width:1.0;"/></g><!--MD5=[317d87269b69d4efc0742d6d557ea5e5]
reverse link ISwimmer to WildSeal--><g id="link_ISwimmer_WildSeal"><path codeLine="76" d="M1004.87,78.35 C1025.23,92.76 1044.97,111.35 1056.22,134 C1073.22,168.23 1072.21,185.28 1056.22,220 C1044.68,245.06 1021.42,265.38 1000.57,279.64 " fill="none" id="ISwimmer-backto-WildSeal" style="stroke:#181818;stroke-width:1.0;"/><polygon fill="none" points="1001.25,84.34,988.28,67.57,1008.87,72.59,1001.25,84.34" style="stroke:#181818;stroke-width:1.0;"/></g><!--MD5=[76db472fe481e1a7d40ecbea4573754d]
reverse link ICrawl to WildSeal--><g id="link_ICrawl_WildSeal"><path codeLine="77" d="M372.48,50.44 C514.43,68.02 813.73,107.68 853.22,134 C860.25,138.68 918.07,234.29 945.23,279.58 " fill="none" id="ICrawl-backto-WildSeal" style="stroke:#181818;stroke-width:1.0;"/><polygon fill="none" points="372.02,57.44,353.02,48.05,373.73,43.54,372.02,57.44" style="stroke:#181818;stroke-width:1.0;"/></g><!--MD5=[5b787ae9c41db676efd5a7ed1601b15e]
reverse link IBreath to WildSeal--><g id="link_IBreath_WildSeal"><path codeLine="78" d="M777.93,65.97 C814.65,80.79 856.78,102.93 886.22,134 C926.34,176.34 946.36,244.2 954.54,279.68 " fill="none" id="IBreath-backto-WildSeal" style="stroke:#181818;stroke-width:1.0;"/><polygon fill="none" points="775.56,72.56,759.34,58.92,780.52,59.47,775.56,72.56" style="stroke:#181818;stroke-width:1.0;"/></g><!--MD5=[61482475477bdb6f62ce5df73924f9c2]
reverse link IName to WildSeal--><g id="link_IName_WildSeal"><path codeLine="79" d="M616.09,212.13 C714.99,238.32 845.75,272.95 913.75,290.96 " fill="none" id="IName-backto-WildSeal" style="stroke:#181818;stroke-width:1.0;"/><polygon fill="none" points="614.51,218.95,596.97,207.07,618.1,205.42,614.51,218.95" style="stroke:#181818;stroke-width:1.0;"/></g><!--MD5=[06fa4d39e9fafee107b0f1d8135eb631]
reverse link IFetcher to Seal--><g id="link_IFetcher_Seal"><path codeLine="81" d="M743.25,230.02 C734.92,247.37 726.06,265.83 719.33,279.85 " fill="none" id="IFetcher-backto-Seal" style="stroke:#181818;stroke-width:1.0;"/><polygon fill="none" points="736.84,227.21,751.8,212.21,749.46,233.27,736.84,227.21" style="stroke:#181818;stroke-width:1.0;"/></g><!--MD5=[61ba7f53ad550dff0b4ce6c8f1102edb]
reverse link ICrawl to Seal--><g id="link_ICrawl_Seal"><path codeLine="82" d="M372.59,47.59 C441.21,56.59 542.7,78.89 612.22,134 C660.87,172.57 689.18,243 701.26,279.57 " fill="none" id="ICrawl-backto-Seal" style="stroke:#181818;stroke-width:1.0;"/><polygon fill="none" points="372.09,54.58,353.05,45.28,373.73,40.67,372.09,54.58" style="stroke:#181818;stroke-width:1.0;"/></g><!--MD5=[fea89703b53af4c6aecd57c72a657d1c]
reverse link IBreath to Seal--><g id="link_IBreath_Seal"><path codeLine="83" d="M777.52,68.99 C806.63,83.55 836.66,104.64 853.22,134 C872,167.29 872.39,186.93 853.22,220 C828.63,262.41 773.32,285 738.56,295.45 " fill="none" id="IBreath-backto-Seal" style="stroke:#181818;stroke-width:1.0;"/><polygon fill="none" points="774.84,75.46,759.57,60.77,780.67,62.73,774.84,75.46" style="stroke:#181818;stroke-width:1.0;"/></g><!--MD5=[11bd16a2fb463dd00e6ac3e720936bd4]
reverse link IName to Seal--><g id="link_IName_Seal"><path codeLine="84" d="M580.81,230.93 C615.61,250.62 652.71,271.6 677.84,285.82 " fill="none" id="IName-backto-Seal" style="stroke:#181818;stroke-width:1.0;"/><polygon fill="none" points="577.63,237.18,563.67,221.24,584.52,224.99,577.63,237.18" style="stroke:#181818;stroke-width:1.0;"/></g><!--MD5=[432cd62d68390fdbfba02c3fd3dba191]
@startuml

interface IName {
    -name: string
    -numberOfAppendages: uint
}

interface IMobile {
    +walk(): void
    +run(): void
}

interface IDigger {
    +dig(): void
}

interface ICrawl {
    +crawl(): void
}

interface IBreath {
    +breath(): void
}

interface ISwimmer {
    +swim(): void
}

interface IFetcher {
    +playFetch(): void
}

class Dog {

}

class WildSeal {

}

class Seal {

}

class Mole {

}

class Cat {

}

class Worm {

}

ICrawl <|- - IMobile
IBreath <|- - IMobile
ICrawl <|- - IDigger
ISwimmer <|- - IFetcher
IMobile <|- - Dog
IDigger <|- - Dog
IFetcher <|- - Dog
IName <|- - Dog

IMobile <|- - Cat
ICrawl <|- - Cat
IName <|- - Cat

IBreath <|- - Mole
IDigger <|- - Mole
IName <|- - Mole

IDigger <|- - Worm
IName <|- - Worm

ISwimmer <|- - WildSeal
ICrawl <|- - WildSeal
IBreath <|- - WildSeal
IName <|- - WildSeal

IFetcher <|- - Seal
ICrawl <|- - Seal
IBreath <|- - Seal
IName <|- - Seal

@enduml

PlantUML version 1.2022.7(Mon Aug 22 18:01:30 BST 2022)
(GPL source distribution)
Java Runtime: OpenJDK Runtime Environment
JVM: OpenJDK 64-Bit Server VM
Default Encoding: UTF-8
Language: en
Country: GB
--></g></svg>